PathFileType	4	(X/Y/Z)	jw_hip_rstar.trc	
DataRate	CameraRate	NumFrames	NumMarkers	Units	OrigDataRate	OrigDataStartFrame	OrigNumFrames	
120.00	120.00	27	8	mm	120.00	206	1647	
Frame#	Time	RAsis			LAsis			RPsis			LPsis			RThighSuperior			RThighInferior			RThighLateral			RPatella			
		X1	Y1	Z1	X2	Y2	Z2	X3	Y3	Z3	X4	Y4	Z4	X5	Y5	Z5	X6	Y6	Z6	X7	Y7	Z7	X8	Y8	Z8	

206	1.708	-454.83209	147.72203	1033.87190	-193.86462	90.44758	997.90112	-296.84900	324.96716	967.11102	-238.93602	311.02533	968.35736	-493.95813	198.38596	815.89648	-466.69824	136.15526	579.29443	-452.00058	96.31627	676.86542	-430.33130	97.19421	504.99368 
207	1.717	-454.11108	148.17607	1033.71130	-193.11240	90.49042	997.92108	-296.20209	325.54080	967.32379	-238.35933	311.59726	968.63013	-493.48410	197.28601	815.95874	-467.20953	132.50934	579.53546	-451.71597	94.02160	677.52826	-431.02682	92.89383	504.83554 
208	1.725	-453.14844	148.75723	1033.50610	-192.40384	90.68127	997.88635	-295.19308	326.29221	967.57263	-237.81143	312.36276	969.03491	-492.62247	196.08888	815.87402	-467.92267	128.41757	579.96954	-451.44415	91.50800	678.46313	-431.92114	88.47591	504.52066 
209	1.733	-452.24881	149.45779	1033.32430	-191.70866	90.94872	997.81110	-294.43549	326.97574	967.73724	-236.89923	312.92062	969.36530	-492.04596	194.80901	815.68524	-468.62335	124.06396	580.50586	-450.92209	88.52422	679.43182	-432.48105	83.56592	504.21823 
210	1.742	-451.40292	150.43700	1033.05420	-190.98816	91.27238	997.71356	-293.24109	327.91510	967.90027	-235.74341	313.62433	969.69855	-491.65851	193.67030	815.71667	-469.64572	119.27727	581.31012	-450.92691	85.44488	680.48279	-433.37808	78.04657	504.21500 
211	1.750	-450.69211	151.45345	1032.73160	-190.29405	91.73413	997.58527	-292.23312	328.75653	968.02905	-234.57820	314.30450	969.94531	-490.75598	191.84230	815.39392	-470.58850	114.05995	582.31268	-450.89304	82.09142	681.89459	-434.59286	72.27503	504.51724 
212	1.758	-450.02997	152.82257	1032.40820	-189.61377	92.17237	997.45288	-291.19382	329.56628	968.12640	-233.38478	314.99167	970.18097	-489.84924	190.42337	815.21948	-471.62601	108.49377	583.63843	-450.95709	78.58141	683.60193	-435.55386	65.76045	505.01019 
213	1.767	-449.26633	154.12949	1032.05150	-188.92374	92.64681	997.29669	-289.70767	330.67755	968.21686	-232.02646	315.86676	970.29919	-489.00150	188.72244	815.39026	-473.01428	102.84933	585.35760	-450.94379	74.63090	685.56488	-436.54724	58.93825	505.60898 
214	1.775	-448.38495	155.46971	1031.71590	-188.39761	93.22461	997.06006	-288.25589	331.77069	968.31543	-230.76860	316.63345	970.41187	-488.14151	187.13615	815.32599	-474.35486	96.47266	587.59235	-450.95572	70.59405	688.03625	-437.74655	51.49229	506.99796 
215	1.783	-447.76459	157.07043	1031.38400	-187.83574	93.69974	996.73773	-286.95084	332.72919	968.22876	-229.34221	317.45627	970.60779	-487.50784	185.77774	816.05231	-475.60233	89.56109	589.85321	-450.98938	66.24141	690.63245	-438.90955	43.92254	508.32706 
216	1.792	-447.19458	158.83244	1031.08220	-187.42795	94.25562	996.47577	-285.44058	333.77167	968.12988	-227.82764	318.32388	970.62482	-487.87918	185.15599	817.50623	-476.93518	82.35000	592.59204	-451.25482	61.90705	693.62872	-439.55325	35.80830	510.03015 
217	1.800	-446.59686	160.46941	1030.77530	-186.96484	94.89707	996.14911	-283.90231	334.81039	967.93195	-226.30022	318.98059	970.55542	-486.92337	183.36475	817.58026	-478.10559	74.69849	595.81299	-451.38672	57.24703	696.88391	-440.23529	27.45712	512.35162 
218	1.808	-446.07355	162.25992	1030.46280	-186.68681	95.46138	995.75903	-282.39639	335.79025	967.67694	-224.68651	319.68954	970.47937	-485.49951	181.46399	817.68414	-478.90027	66.61419	599.26086	-451.69394	52.35065	700.72693	-440.18216	18.85407	515.05261 
219	1.817	-445.56573	164.26875	1030.13930	-186.49866	95.96187	995.40729	-280.64432	336.77710	967.44427	-223.11905	320.24118	970.43805	-484.76624	179.90868	818.48975	-480.05884	58.95611	603.35645	-451.94467	47.54028	704.78503	-440.57455	10.26767	517.95117 
220	1.825	-444.50711	166.64781	1029.63590	-186.39070	96.44640	995.07526	-278.90698	337.78476	967.22186	-221.48224	321.05463	970.09546	-483.86444	178.18762	819.41095	-480.77115	50.90609	607.75519	-452.11755	42.61229	709.24329	-440.78857	1.33161	521.55341 
221	1.833	-443.96118	168.34920	1029.14710	-186.23564	96.94370	994.74316	-277.24460	338.52136	966.84222	-219.85522	321.34622	969.87463	-483.05984	176.56566	820.60803	-481.40121	42.77881	612.43127	-452.17047	37.91044	713.94971	-441.04019	-7.66832	525.40576 
222	1.842	-443.41821	170.05388	1028.62570	-186.04425	97.59023	994.36316	-275.55789	339.25027	966.51172	-218.38469	321.92822	969.62531	-482.64752	175.24062	822.22101	-481.98941	35.03628	617.45892	-452.14136	32.92948	718.85913	-441.21869	-16.73031	529.84344 
223	1.850	-442.90665	171.58690	1028.27610	-185.83672	98.11041	994.10052	-274.02219	339.96719	966.21179	-216.82959	322.46512	969.27539	-481.56036	173.07713	823.39471	-482.62289	27.26755	622.86896	-452.26831	28.24621	724.01276	-441.23636	-25.43223	534.56958 
224	1.858	-442.49512	173.12320	1027.95570	-185.69548	98.59315	993.86566	-272.37363	340.73215	965.91327	-215.37209	322.88019	968.82239	-481.08994	171.49051	825.35553	-483.66718	19.17119	628.67603	-452.07623	23.90740	729.31818	-441.47766	-34.40345	540.18628 
225	1.867	-441.93106	174.68413	1027.69970	-185.42870	99.10210	993.70819	-270.85538	341.34927	965.52563	-213.90607	323.36981	968.44281	-480.43723	169.48706	827.38763	-484.08847	11.90919	634.30176	-451.89392	19.27157	734.93341	-441.77612	-43.02494	545.91663 
226	1.875	-441.25168	175.89651	1027.56760	-185.12747	99.62575	993.57458	-269.40604	342.00809	965.03290	-212.54828	323.91837	967.96838	-479.38800	167.41013	829.60596	-484.47052	4.48746	640.42896	-451.50989	14.84219	740.74835	-441.89362	-51.35402	551.86670 
227	1.883	-440.64392	177.09927	1027.51810	-184.68440	100.28687	993.53510	-268.24783	342.48279	964.76007	-211.49364	324.24695	967.57458	-478.55292	165.46561	831.97498	-485.02115	-2.58998	646.85718	-451.22769	10.54051	746.88708	-442.20233	-59.81570	558.37299 
228	1.892	-440.11420	178.14308	1027.65160	-184.14952	100.97878	993.47974	-267.18582	343.03329	964.41107	-210.35602	324.73065	967.14813	-477.58426	163.18777	834.29974	-485.41193	-9.43816	653.38947	-450.84634	6.36430	753.20520	-442.33591	-67.99091	565.04083 
229	1.900	-439.42624	179.25911	1027.81090	-183.47194	101.67625	993.60162	-266.21881	343.70761	964.10278	-209.28738	325.20313	966.80731	-477.53329	161.53831	837.32202	-485.14407	-16.63361	660.00470	-450.33270	2.30667	759.64832	-442.47330	-76.09542	572.31635 
230	1.908	-438.65540	180.04956	1028.05510	-182.80287	102.31158	993.68280	-265.25934	344.36319	963.82965	-208.38644	325.86630	966.49646	-476.43674	159.35425	839.81311	-486.17062	-22.56782	667.57819	-449.92526	-1.46564	766.03925	-442.25037	-84.32219	579.96979 
231	1.917	-437.97391	180.82123	1028.37880	-182.03824	103.07140	993.83020	-264.58289	345.06442	963.36621	-207.62778	326.42468	966.15637	-475.89893	157.49902	842.51569	-486.36816	-28.92729	675.02625	-449.28653	-4.93518	772.98553	-442.73715	-91.96310	587.42151 
232	1.925	-437.28403	181.37027	1028.68800	-181.18500	103.86272	994.00336	-264.11716	345.65536	962.86060	-206.90509	327.13803	965.84900	-475.56473	155.72610	845.53253	-486.77008	-35.10446	682.75031	-448.62656	-8.44521	779.71753	-442.82501	-99.66428	595.42938 
